<svg id="Layer_1" data-name="Layer 1" xmlns="http://www.w3.org/2000/svg" viewBox="0 0 140.07 43.36"><defs><style>.cls-1{fill:#fff;}.cls-2{fill:#0099a1;}</style></defs><path class="cls-1" d="M55.92,16.88H66.86V19H59.37V23.6h7.32v2.2H59.37v6.34H55.92Z"/><path class="cls-1" d="M73.12,16.88h4.39l5.2,15.26H79.12l-1-2.92H71l-1,2.92H67.5ZM71.79,27.06h5.67l-2.53-7.67h-.38Z"/><path class="cls-1" d="M96.25,16.88V19H90c-1,0-1.46.27-1.46,1,0,.54.39.95,1.28,1.67l4.19,3.54c1.74,1.48,2.55,2.39,2.55,3.85,0,1.86-1.24,3.12-3.77,3.12H84.92V30h6.54c1,0,1.46-.31,1.46-1,0-.54-.33-1-1.27-1.79l-4.23-3.53c-1.65-1.39-2.53-2.31-2.53-3.79,0-1.77,1.25-3,3.78-3Z"/><path class="cls-1" d="M110,16.88v2h-6.21c-1,0-1.46.37-1.46,1.07,0,.54.39.95,1.28,1.67l4.19,3.54c1.74,1.48,2.55,2.39,2.55,3.85,0,1.86-1.24,3.12-3.77,3.12H98.66v-2h6.53c1,0,1.47-.39,1.47-1.11,0-.54-.33-1-1.27-1.79l-4.23-3.53c-1.65-1.39-2.53-2.31-2.53-3.79,0-1.77,1.25-3,3.77-3Z"/><path class="cls-1" d="M113.53,16.88h11.09V19H117v4.32h7.48v2.13H117V30h7.65v2.11H113.53Z"/><path class="cls-1" d="M126.84,16.88h13.23V19h-4.9V32.14h-3.45V19h-4.88Z"/><path class="cls-2" d="M35.13,16.46l8.23-8.23L35.13,0,28.4,6.72,21.68,0,15,6.72,8.23,0,0,8.23,6.72,15,0,21.68,6.72,28.4,0,35.13l8.23,8.23,8.23-8.23L9.74,28.4,15,23.19l6.72,6.72,8.23-8.23L23.19,15,28.4,9.74Zm0-12.24,4,4-4,4-4-4ZM20.17,15,15,20.17,9.74,15,15,9.74ZM8.23,4.22l4,4-4,4-4-4Zm0,34.92-4-4,4-4,4,4Zm0-13.45-4-4,4-4,4,4Zm13.45,0-4-4,4-4,4,4Zm0-13.45-4-4,4-4,4,4Z"/></svg>